<svg width="78" height="72" viewBox="0 0 78 72" fill="none" xmlns="http://www.w3.org/2000/svg">
<path d="M0.174121 72V0.749996H18.6241V11.775H11.1991V60.975H18.6241V72H0.174121ZM5.61162 66.3H13.5241H5.61162V6.15H13.5241H5.61162V66.3ZM31.9835 57V27.075H22.646V16.5H31.9835V6.225H42.596V16.5H51.896V27.075H42.596V46.3875H51.6335V57H31.9835ZM37.3085 51.6375H46.9835V51.675H37.3085V21.675H47.171V21.7125H37.3085V10.9125V21.675H27.4085V21.6375H37.3085V51.6375ZM77.0415 72H58.5915V60.975H66.0165V11.775H58.5915V0.749996H77.0415V72ZM71.604 66.3V6.15H63.6915H71.604V66.3H63.6915H71.604Z" fill="#002D72"/>
</svg>
